<svg xmlns="http://www.w3.org/2000/svg" width="396" height="148.926" viewBox="0 0 390 146.67">
    <g fill="#fff">
        <path d="M41.885 21.327c1.292-1.069 3.054-1.544 4.703-1.233 7.709 1.533 15.419 3.067 23.123 4.614 1.853.441 3.764.13 5.644.188 9.723-.08 19.443-.2 29.164-.278 2.876-.062 5.514 2.363 5.718 5.226.015.966.06 1.934.056 2.901 1.905.559 3.908.733 5.819 1.28 2.665.86 4.362 3.849 3.77 6.581-2.964 14.823-5.914 29.648-8.882 44.471-.136.626-.005 1.263.066 1.886 1.643 14.445 3.29 28.89 4.93 43.334.106 1.258.436 2.535.155 3.795-.426 2.326-2.426 4.26-4.772 4.582-3.777.464-7.567.829-11.34 1.323-.62 2.789-3.506 4.794-6.338 4.383-3.915-.723-7.808-1.593-11.726-2.288-2.119.095-4.219.457-6.33.656-11.42 1.298-22.841 2.609-34.265 3.896-2.718.275-5.428-1.679-6.043-4.335-.291-1.439-.336-2.916-.565-4.365-1.505-.225-2.917-1.007-3.845-2.22-.925-1.135-1.28-2.632-1.213-4.073-1.772-.424-3.575-.71-5.352-1.105-2.042-.482-3.723-2.191-4.202-4.228-.234-.949-.197-1.944.018-2.89 2.739-13.599 5.42-27.21 8.156-40.808.07-.34.077-.689.042-1.031a53787.23 53787.23 0 0 1-4.637-40.742c-.288-2.94 2.038-5.844 4.985-6.149.13-1.548-.164-3.115.09-4.655.355-2.11 2.004-3.931 4.063-4.504 1.042-.338 2.146-.19 3.22-.241 1.221-.071 2.444-.003 3.665-.043.247-1.498.91-2.971 2.123-3.928zm2.738 1.846c-.992.351-1.698 1.283-1.836 2.317-6.566 32.942-13.153 65.882-19.724 98.824-.247 1.043.177 2.191 1.029 2.835.8.62 1.863.628 2.812.853 21.93 4.383 43.866 8.748 65.795 13.137.797.149 1.627.402 2.438.182.995-.277 1.826-1.133 2.007-2.16 6.514-32.59 13.01-65.179 19.517-97.765.127-.726.366-1.445.308-2.19-.097-1.199-1.085-2.233-2.253-2.458-22.498-4.493-45-8.974-67.5-13.474-.849-.152-1.751-.455-2.593-.101zM85.452 27.9c2.356.382 4.688.923 7.035 1.369 4.926.982 9.853 1.973 14.784 2.938-.044-1.121.213-2.375-.48-3.356-.594-.927-1.743-1.369-2.816-1.223-6.039.042-12.077.105-18.116.141-.142.021-.278.065-.407.13zm-53.724 3.226c.048 9.664.205 19.323.265 28.99-.005 1.218-.036 2.442.138 3.65 2.29-11.835 4.735-23.66 7.048-35.499-1.623.025-3.248-.048-4.87.044-1.415.068-2.65 1.39-2.581 2.815zm-4.749 8.126c-.351.705-.23 1.514-.159 2.266.747 6.32 1.414 12.65 2.187 18.965.025.29-.002.582.012.874.117-.265.026-.582.044-.863-.117-1.47.028-2.946-.108-4.414-.042-6.118-.076-12.234-.156-18.352-.791.215-1.481.773-1.82 1.524zm74.324 94.287c-.057.265-.1.536-.068.81.974.009 1.946-.073 2.921-.055.884-.002 1.833.099 2.633-.353.964-.484 1.547-1.583 1.477-2.653-.053-5.806-.14-11.615-.15-17.426-.1-1.891.042-3.79-.104-5.68.002-2.623-.029-5.25-.059-7.872-2.237 11.065-4.412 22.158-6.65 33.23zm9.816-18.034c.02 5.326.076 10.653.121 15.98.046 1.673-.76 3.258-1.96 4.389.876-.08 1.816-.064 2.601-.517.9-.512 1.462-1.57 1.374-2.603-.729-6.534-1.498-13.067-2.22-19.6-.09.783.06 1.569.084 2.35zm-78.342 16.712c-.157 1.383 1.19 2.729 2.573 2.736 3.608.01 7.214-.085 10.823-.055-4.46-.914-8.932-1.78-13.396-2.68zm11.947 5.676c-2.278-.027-4.557.063-6.835.023-.147.278-.004.596.008.89.138.938.163 1.891.37 2.818.332 1.272 1.652 2.18 2.962 2.02 10.251-1.14 20.492-2.369 30.747-3.47l-.005-.154c-3.653-.678-7.286-1.457-10.932-2.16-.958-.26-1.948-.084-2.925-.115-2.508-.02-5.014.061-7.52.04-1.957.1-3.918-.04-5.87.108z" />
        <path d="M74.053 60.758C67.974 67.5 61.292 73.683 54.175 79.316c4.58 7.838 8.645 16.03 11.739 24.573 5.995-6.826 12.765-12.976 19.887-18.606-4.574-7.838-8.545-16.032-11.748-24.525zM53.168 29.983a65.062 65.062 0 0 1-7.95 7.423c1.833 3.135 3.458 6.411 4.696 9.829 2.399-2.732 5.105-5.191 7.955-7.442a65.03 65.03 0 0 1-4.7-9.81zM87.46 135.69a64.868 64.868 0 0 1 7.95-7.422c-1.832-3.135-3.458-6.412-4.695-9.828-2.398 2.73-5.107 5.188-7.954 7.44a65.142 65.142 0 0 1 4.698 9.81z" />
    </g>
    <path d="M165.446 45v17.3h11.608v10.602h-11.608v28.571c0 2.679.447 4.464 1.34 5.357s2.678 1.34 5.357 1.34c1.934 0 3.571-.15 4.91-.447v12.389c-2.232.372-5.357.558-9.374.558-6.101 0-10.64-1.042-13.616-3.125s-4.465-5.692-4.465-10.826V72.902H140V62.299h9.598V45h15.848zm45.76 15.737c16.815.074 25.222 5.543 25.222 16.406v30.58c0 5.655.67 9.747 2.01 12.277h-16.072a23.206 23.206 0 0 1-1.116-5.58c-4.687 4.762-11.16 7.142-19.42 7.142-6.026 0-10.807-1.525-14.341-4.575s-5.301-7.292-5.301-12.724c0-5.282 1.674-9.375 5.022-12.276 3.422-3.051 9.635-4.985 18.638-5.804 6.4-.67 10.454-1.507 12.165-2.511s2.567-2.548 2.567-4.632c0-2.604-.78-4.538-2.343-5.803s-4.167-1.898-7.813-1.898c-3.348 0-5.878.689-7.59 2.065s-2.715 3.59-3.013 6.64h-15.848c.372-6.324 2.976-11.123 7.813-14.397s11.309-4.91 19.42-4.91zm-13.17 42.857c0 4.91 3.236 7.366 9.71 7.366 8.482-.075 12.76-4.427 12.834-13.058v-6.139c-1.265 1.265-4.464 2.195-9.598 2.79-4.464.521-7.738 1.433-9.821 2.735s-3.125 3.404-3.125 6.306zm84.375-42.857c1.339 0 2.492.186 3.46.558v14.732c-1.712-.372-3.61-.558-5.692-.558-10.417 0-15.625 6.176-15.625 18.527V120h-15.849V62.3h15.067v10.713h.224c1.562-3.72 4.036-6.696 7.421-8.928s7.05-3.348 10.994-3.348zm35.714 0c9.226 0 16.518 2.808 21.875 8.426s8.036 12.965 8.036 22.042c0 9.152-2.735 16.5-8.204 22.043s-12.704 8.314-21.707 8.314c-9.152 0-16.406-2.808-21.764-8.426s-8.035-12.927-8.035-21.93c0-9.301 2.734-16.705 8.203-22.21s12.667-8.26 21.596-8.26zm-13.951 30.468c0 5.878 1.19 10.417 3.571 13.616s5.841 4.8 10.38 4.8c4.687 0 8.203-1.637 10.547-4.911s3.515-7.775 3.515-13.505c0-5.952-1.209-10.528-3.627-13.727s-5.933-4.8-10.547-4.8c-4.464 0-7.886 1.6-10.268 4.8s-3.571 7.775-3.571 13.727zM378.393 45v17.3H390v10.602h-11.607v28.571c0 2.679.446 4.464 1.34 5.357s2.678 1.34 5.356 1.34c1.935 0 3.572-.15 4.911-.447v12.389c-2.232.372-5.357.558-9.375.558-6.101 0-10.64-1.042-13.616-3.125s-4.464-5.692-4.464-10.826V72.902h-9.599V62.299h9.599V45h15.848z" fill="#fff" />
</svg>